<?xml version="1.0" encoding="UTF-8"?>
<svg width="90px" height="90px" viewBox="0 0 90 90" version="1.1" xmlns="http://www.w3.org/2000/svg" xmlns:xlink="http://www.w3.org/1999/xlink">
    <!-- Generator: sketchtool 55.2 (78181) - https://sketchapp.com -->
    <title>E4DF3577-C8CF-4A55-9766-2223ED33039C</title>
    <desc>Created with sketchtool.</desc>
    <g id="Homepage" stroke="none" stroke-width="1" fill="none" fill-rule="evenodd">
        <g id="aggrx startex llc-Homepage-1366---Animation-01" transform="translate(-496.000000, -5206.000000)" stroke="#005CA1" stroke-width="2">
            <g id="accuracy" transform="translate(495.500000, 5206.000000)">
                <g id="Group-9-Copy" transform="translate(10.643751, 10.340199)">
                    <path d="M57.1662,8.1629 C51.1162,3.0719 43.3122,-0.0001 34.7862,-0.0001 C26.2602,-0.0001 18.4552,3.0719 12.4052,8.1629" id="Stroke-1"></path>
                    <path d="M8.1628,12.4056 C3.0718,18.4556 -0.0002,26.2606 -0.0002,34.7856 C-0.0002,43.3116 3.0718,51.1166 8.1628,57.1666" id="Stroke-3"></path>
                    <path d="M61.4094,57.1668 C66.5004,51.1168 69.5724,43.3118 69.5724,34.7858 C69.5724,26.2598 66.5004,18.4558 61.4094,12.4058" id="Stroke-5"></path>
                    <path d="M12.4055,61.409 C18.4555,66.5 26.2605,69.572 34.7855,69.572 C43.3115,69.572 51.1165,66.5 57.1665,61.409" id="Stroke-7"></path>
                </g>
                <g id="Group-12" transform="translate(24.444060, 24.409481)">
                    <path d="M20.9926478,18.3007576 L20.9926478,43.3007576" id="Line-3"></path>
                    <path d="M20.9733576,18.3007576 C24.4833491,15.5695815 26.2383448,12.5194552 26.2383448,9.15037879 C26.2383448,5.78130235 24.4833491,2.73117609 20.9733576,4.54747351e-13 C17.4633662,2.73117609 15.7083704,5.78130235 15.7083704,9.15037879 C15.7083704,12.5194552 17.4633662,15.5695815 20.9733576,18.3007576 Z" id="Oval"></path>
                    <path d="M31.1716379,29.9184871 C34.6816293,27.187311 36.4366251,24.1371848 36.4366251,20.7681083 C36.4366251,17.3990319 34.6816293,14.3489056 31.1716379,11.6177295 C27.6616464,14.3489056 25.9066507,17.3990319 25.9066507,20.7681083 C25.9066507,24.1371848 27.6616464,27.187311 31.1716379,29.9184871 Z" id="Oval-Copy-5" transform="translate(31.171638, 20.768108) rotate(45.000000) translate(-31.171638, -20.768108) "></path>
                    <path d="M10.6475629,29.9184871 C14.1575544,27.187311 15.9125501,24.1371848 15.9125501,20.7681083 C15.9125501,17.3990319 14.1575544,14.3489056 10.6475629,11.6177295 C7.13757148,14.3489056 5.38257576,17.3990319 5.38257576,20.7681083 C5.38257576,24.1371848 7.13757148,27.187311 10.6475629,29.9184871 Z" id="Oval-Copy-9" transform="translate(10.647563, 20.768108) scale(-1, 1) rotate(45.000000) translate(-10.647563, -20.768108) "></path>
                </g>
                <path d="M45.3540314,0.467204069 L45.3540314,16.2842951" id="Line-3-Copy"></path>
                <path d="M45.44406,73.8969659 L45.44406,89.7140569" id="Line-3-Copy-2"></path>
                <path d="M81.9867008,37.3197458 L81.9867008,53.1368368" id="Line-3-Copy" transform="translate(82.429762, 45.352542) rotate(-270.000000) translate(-82.429762, -45.352542) "></path>
                <path d="M8.55693892,37.3197458 L8.55693892,53.1368368" id="Line-3-Copy-2" transform="translate(9.000000, 45.352542) rotate(-270.000000) translate(-9.000000, -45.352542) "></path>
            </g>
        </g>
    </g>
</svg>