<?xml version="1.0" encoding="UTF-8"?>
<svg width="58px" height="139px" viewBox="0 0 58 139" version="1.1" xmlns="http://www.w3.org/2000/svg" xmlns:xlink="http://www.w3.org/1999/xlink">
    <!-- Generator: sketchtool 55.2 (78181) - https://sketchapp.com -->
    <title>F416E8C4-605B-4CBE-BAF8-109B878EA17E</title>
    <desc>Created with sketchtool.</desc>
    <g id="Homepage" stroke="none" stroke-width="1" fill="none" fill-rule="evenodd">
        <g id="aggrx startex llc-Homepage-1366---Animation-01" transform="translate(-512.000000, -4984.000000)" stroke="#005CA1" stroke-width="2">
            <g id="Affordable" transform="translate(508.000000, 4985.500000)">
                <g id="Group-12-Copy">
                    <path d="M33.3618562,83.475 L33.3618562,137.409197" id="Line-3"></path>
                    <path d="M33.3618562,29.475 L33.3618562,57.409197" id="Line-3"></path>
                    <path d="M33.3618562,30.6 C39.2307793,26.0333044 42.1652409,20.9333044 42.1652409,15.3 C42.1652409,9.66669555 39.2307793,4.56669555 33.3618562,4.54747351e-13 C27.4929332,4.56669555 24.5584716,9.66669555 24.5584716,15.3 C24.5584716,20.9333044 27.4929332,26.0333044 33.3618562,30.6 Z" id="Oval"></path>
                    <path d="M48.7071159,48.3186667 C54.5760389,43.7519712 57.5105005,38.6519712 57.5105005,33.0186667 C57.5105005,27.3853623 54.5760389,22.2853623 48.7071159,17.7186667 C42.8381928,22.2853623 39.9037312,27.3853623 39.9037312,33.0186667 C39.9037312,38.6519712 42.8381928,43.7519712 48.7071159,48.3186667 Z" id="Oval-Copy-5" transform="translate(48.707116, 33.018667) rotate(45.000000) translate(-48.707116, -33.018667) "></path>
                    <path d="M48.7071159,121.320587 C54.5760389,116.753892 57.5105005,111.653892 57.5105005,106.020587 C57.5105005,100.387283 54.5760389,95.287283 48.7071159,90.7205874 C42.8381928,95.287283 39.9037312,100.387283 39.9037312,106.020587 C39.9037312,111.653892 42.8381928,116.753892 48.7071159,121.320587 Z" id="Oval-Copy-14" transform="translate(48.707116, 106.020587) rotate(45.000000) translate(-48.707116, -106.020587) "></path>
                    <path d="M17.8033846,48.3186667 C23.6723077,43.7519712 26.6067692,38.6519712 26.6067692,33.0186667 C26.6067692,27.3853623 23.6723077,22.2853623 17.8033846,17.7186667 C11.9344615,22.2853623 9,27.3853623 9,33.0186667 C9,38.6519712 11.9344615,43.7519712 17.8033846,48.3186667 Z" id="Oval-Copy-9" transform="translate(17.803385, 33.018667) scale(-1, 1) rotate(45.000000) translate(-17.803385, -33.018667) "></path>
                    <path d="M17.8033846,121.320587 C23.6723077,116.753892 26.6067692,111.653892 26.6067692,106.020587 C26.6067692,100.387283 23.6723077,95.287283 17.8033846,90.7205874 C11.9344615,95.287283 9,100.387283 9,106.020587 C9,111.653892 11.9344615,116.753892 17.8033846,121.320587 Z" id="Oval-Copy-15" transform="translate(17.803385, 106.020587) scale(-1, 1) rotate(45.000000) translate(-17.803385, -106.020587) "></path>
                </g>
                <path d="M5.165186,55.8750682 C29.2949913,48.6579279 40.0009485,67.0089938 60.834814,55.8750682 L60.834814,83.8894617 C41.0784252,91.0726395 33.1769296,77.0654427 5.165186,83.8894617 L5.165186,55.8750682 Z" id="Rectangle"></path>
            </g>
        </g>
    </g>
</svg>