<?xml version="1.0" encoding="UTF-8"?>
<svg width="66px" height="137px" viewBox="0 0 66 137" version="1.1" xmlns="http://www.w3.org/2000/svg" xmlns:xlink="http://www.w3.org/1999/xlink">
    <!-- Generator: sketchtool 55.2 (78181) - https://sketchapp.com -->
    <title>AB25EBB6-57EA-4FA1-9440-7336EF4B516E</title>
    <desc>Created with sketchtool.</desc>
    <g id="Homepage" stroke="none" stroke-width="1" fill="none" fill-rule="evenodd">
        <g id="aggrx startex llc-Homepage-1366---Animation-01" transform="translate(-508.000000, -4767.000000)" stroke="#005CA1" stroke-width="2">
            <g id="Pioneering-wireless-connectivity" transform="translate(509.500000, 4768.000000)">
                <path d="M52.1161667,16.2096667 C52.1196667,16.1175 52.1301667,16.0265 52.1301667,15.9331667 C52.1301667,10.9771667 48.111,6.95683333 43.1538333,6.95683333 C41.6686667,6.95683333 40.271,7.32433333 39.0366667,7.96366667 C36.2751667,3.20716667 31.1406667,-3.33955086e-13 25.2443333,-3.33955086e-13 C16.4325,-3.33955086e-13 9.29016667,7.1435 9.29016667,15.9553333 C9.29016667,16.1746667 9.3135,16.3858333 9.32166667,16.6028333 C3.91533333,18.3411667 5.82645043e-13,23.4068333 5.82645043e-13,29.393 C5.82645043e-13,36.8141667 6.01533333,42.8295 13.4376667,42.8295 L49.5273333,42.8295 C56.9496667,42.8295 62.965,36.8141667 62.965,29.393 C62.965,22.8573333 58.2983333,17.4171667 52.1161667,16.2096667 Z" id="Stroke-1"></path>
                <g id="Group-12" transform="translate(7.632121, 84.250000)">
                    <path d="M23.9695516,20.1462121 L23.9753541,51.3333333" id="Line-3"></path>
                    <path d="M23.9695516,20.9151515 C27.9809704,17.7938074 29.9866798,14.3079488 29.9866798,10.4575758 C29.9866798,6.60720268 27.9809704,3.1213441 23.9695516,4.54747351e-13 C19.9581328,3.1213441 17.9524234,6.60720268 17.9524234,10.4575758 C17.9524234,14.3079488 19.9581328,17.7938074 23.9695516,20.9151515 Z" id="Oval"></path>
                    <path d="M35.624729,34.1925567 C39.6361478,31.0712126 41.6418572,27.585354 41.6418572,23.734981 C41.6418572,19.8846079 39.6361478,16.3987493 35.624729,13.2774052 C31.6133102,16.3987493 29.6076008,19.8846079 29.6076008,23.734981 C29.6076008,27.585354 31.6133102,31.0712126 35.624729,34.1925567 Z" id="Oval-Copy-5" transform="translate(35.624729, 23.734981) rotate(45.000000) translate(-35.624729, -23.734981) "></path>
                    <path d="M12.1686434,34.1925567 C16.1800622,31.0712126 18.1857716,27.585354 18.1857716,23.734981 C18.1857716,19.8846079 16.1800622,16.3987493 12.1686434,13.2774052 C8.15722455,16.3987493 6.15151515,19.8846079 6.15151515,23.734981 C6.15151515,27.585354 8.15722455,31.0712126 12.1686434,34.1925567 Z" id="Oval-Copy-9" transform="translate(12.168643, 23.734981) scale(-1, 1) rotate(45.000000) translate(-12.168643, -23.734981) "></path>
                </g>
                <path d="M31.4501395,77.1689394 L31.4501395,44.1689394" id="Line-5" stroke-dasharray="6"></path>
            </g>
        </g>
    </g>
</svg>