<?xml version="1.0" encoding="UTF-8"?>
<svg width="397px" height="107px" viewBox="0 0 397 107" version="1.1" xmlns="http://www.w3.org/2000/svg" xmlns:xlink="http://www.w3.org/1999/xlink">
    <!-- Generator: sketchtool 55.2 (78181) - https://sketchapp.com -->
    <title>C03CDEDD-8735-40CD-883F-7E93E944368A</title>
    <desc>Created with sketchtool.</desc>
    <defs>
        <polygon id="path-1" points="0 0.566 69.0219 0.566 69.0219 75.6789 0 75.6789"></polygon>
        <polygon id="path-3" points="0.8762 0.8563 90.0542 0.8563 90.0542 107 0.8762 107"></polygon>
        <polygon id="path-5" points="0.442645991 0.7089 16.708 0.7089 16.708 29.3369 0.442645991 29.3369"></polygon>
    </defs>
    <g id="Materials" stroke="none" stroke-width="1" fill="none" fill-rule="evenodd">
        <g id="Logos---Vector" transform="translate(-169.000000, -331.000000)">
            <g id="aggrx startex llc-logo-white" transform="translate(169.500000, 330.000000)">
                <g id="Group-3" transform="translate(0.000000, 0.434000)">
                    <mask id="mask-2" fill="white">
                        <use xlink:href="#path-1"></use>
                    </mask>
                    <g id="Clip-2"></g>
                    <path d="M60.9019,64.5139 C51.6219,72.3439 42.1959,75.6789 31.9009,75.6789 C13.6309,75.6789 -0.0001,64.9489 -0.0001,44.9389 C-0.0001,16.3709 21.4609,0.5659 45.0959,0.5659 C54.9569,0.5659 62.6419,3.6109 69.0219,11.1519 L57.7119,21.1569 C53.9419,16.8059 48.4319,14.7769 42.7769,14.7769 C28.1309,14.7769 15.2259,25.7969 15.2259,42.3269 C15.2259,54.5089 23.4909,61.1789 34.3659,61.1789 C40.4559,61.1789 46.9819,59.2939 52.4919,54.5089 L60.9019,64.5139 Z" id="Fill-1" fill="#FFFEFE" mask="url(#mask-2)"></path>
                </g>
                <path d="M99.0352,2.7399 L98.3102,12.1649 C105.2702,3.0299 113.6812,1.1449 121.3662,1.1449 C128.3262,1.1449 134.5612,3.6099 137.8962,7.2349 L128.9062,20.2859 C125.7162,17.3859 122.5262,15.9359 117.0152,15.9359 C106.7202,15.9359 96.5702,22.3159 94.2502,35.5109 L87.4342,74.2279 L72.4992,74.2279 L85.1152,2.7399 L99.0352,2.7399 Z" id="Fill-4" fill="#FFFEFE"></path>
                <path d="M151.5249,42.6159 C151.5249,53.2029 156.1649,61.7579 169.7959,61.7579 C185.4559,61.7579 196.3309,48.9979 196.3309,34.7859 C196.3309,24.0559 190.6759,15.0659 177.9159,15.0659 C162.5449,15.0659 151.5249,28.2609 151.5249,42.6159 M211.5569,32.6109 C211.5569,56.3919 192.7059,75.6789 167.3299,75.6789 C147.7549,75.6789 136.2989,62.4829 136.2989,44.7929 C136.2989,20.8659 155.2949,1.2899 180.3809,1.2899 C199.8109,1.2899 211.5569,14.7759 211.5569,32.6109" id="Fill-6" fill="#FFFEFE"></path>
                <g id="Group-10" transform="translate(210.000000, 0.434000)">
                    <mask id="mask-4" fill="white">
                        <use xlink:href="#path-3"></use>
                    </mask>
                    <g id="Clip-9"></g>
                    <path d="M74.8282,34.2073 C74.8282,23.0413 67.5782,15.3563 55.6872,15.3563 C40.0272,15.3563 28.8622,27.5373 28.8622,41.7473 C28.8622,52.6233 36.1122,60.8893 47.7132,60.8893 C62.3572,60.8893 74.8282,49.5783 74.8282,34.2073 L74.8282,34.2073 Z M0.8762,107.0003 L19.2922,2.3063 L33.3572,2.3063 L32.1972,13.9063 C39.3022,5.2063 50.1782,0.8563 59.7482,0.8563 C78.4532,1.0013 90.0542,13.7613 90.0542,31.7423 C90.0542,56.1033 71.9282,75.3893 46.5532,75.3893 C37.8522,75.3893 27.2662,72.1993 23.4972,63.3533 L15.8112,107.0003 L0.8762,107.0003 Z" id="Fill-8" fill="#FFFEFE" mask="url(#mask-4)"></path>
                </g>
                <path d="M360.8828,62.5622 L348.3358,38.9912 L379.5118,3.0302 L379.6568,2.5952 L361.5308,2.5952 L341.5208,26.9562 L328.6148,2.5952 L312.2308,2.5952 L312.0848,3.0302 L330.5008,36.9612 L297.7298,73.7932 L297.5848,74.2282 L315.7098,74.2282 L337.4608,49.5782 L350.6558,74.2282 L350.6568,74.2282 C353.5748,70.0042 357.1958,66.2332 360.8828,62.5622" id="Fill-11" fill="#FFFEFE"></path>
                <path d="M374.4893,97.4841 C374.9303,86.5901 387.7933,77.5591 391.1513,71.9381 C388.6653,66.9631 385.6573,62.0671 383.4493,58.0711 C372.5343,71.3331 358.4903,79.8011 357.9133,91.5201 C357.4873,100.1861 362.8753,106.9191 372.6263,107.3801 C374.1453,107.4511 375.6213,107.3771 377.0493,107.1821 C375.2293,104.5261 374.3393,101.1841 374.4893,97.4841" id="Fill-13" fill="#FFFEFE"></path>
                <g id="Group-17" transform="translate(379.000000, 76.434000)">
                    <mask id="mask-6" fill="white">
                        <use xlink:href="#path-5"></use>
                    </mask>
                    <g id="Clip-16"></g>
                    <path d="M16.6924,10.8899 C16.8424,7.8189 15.9304,4.3169 14.5004,0.7089 C13.3824,2.0709 12.0634,3.4819 10.6184,5.0169 C6.1924,9.7149 0.6854,15.5619 0.4554,21.2509 C0.3134,24.7259 1.3614,27.4859 3.3864,29.3369 C11.0214,26.2979 16.2784,19.2929 16.6924,10.8899" id="Fill-15" fill="#FFFEFE" mask="url(#mask-6)"></path>
                </g>
            </g>
        </g>
    </g>
</svg>