<svg xmlns="http://www.w3.org/2000/svg" viewBox="0 0 328.31 343.56"><defs><style>.cls-1,.cls-2,.cls-3,.cls-6,.cls-7,.cls-8{fill:none;}.cls-1,.cls-7{stroke:#ff2961;}.cls-1,.cls-2,.cls-3,.cls-8{stroke-width:2px;}.cls-2,.cls-3,.cls-6,.cls-8{stroke:#fff;}.cls-2{stroke-dasharray:5.4;}.cls-4{fill:#fff;}.cls-5{fill:#005ca1;}.cls-6{stroke-width:4px;}.cls-7{stroke-width:3px;}.cls-8{stroke-linecap:square;}</style></defs><title>main-mobile</title><g id="Layer_2" data-name="Layer 2"><g id="Layer_1-2" data-name="Layer 1"><g id="Homepage"><g id="aggrx startex llc-Homepage-mobile"><g id="Main-image"><polyline id="Path-9-Copy" class="cls-1" points="164.41 27.47 164.41 100.67 118.22 145.67 28.21 178.07"/><path id="Line-12-Copy" class="cls-2" d="M164.5,27.47V300.55"/><g id="Line-13-Copy"><path id="Line-12" class="cls-2" d="M301.3,164.05H28.21"/></g><polyline id="Path-10-Copy" class="cls-1" points="80.6 270.47 101.6 232.07 187.4 221.87 238.4 279.47"/><polyline id="Path-11-Copy" class="cls-3" points="110.7 271.21 110.7 314.21 57 313.74"/><polyline id="Path-12-Copy" class="cls-1" points="260 66.47 194 128.87 207.2 188.27 281 236.87"/><polyline id="Path-13-Copy" class="cls-3" points="110.8 72.47 29.3 72.47 29.3 57.87"/><g id="Group-23-Copy-4"><circle id="Oval" class="cls-4" cx="109.98" cy="72.44" r="8.08"/><circle class="cls-5" cx="109.98" cy="72.44" r="4.2"/></g><g id="Group-23-Copy-5"><circle class="cls-4" cx="110.28" cy="263.84" r="8.08"/><circle class="cls-5" cx="110.28" cy="263.84" r="4.2"/></g><circle id="Oval-Copy-6" class="cls-6" cx="164.5" cy="164.05" r="136.5"/><g id="Group-19"><g id="Group-37-Copy"><circle class="cls-3" cx="29.12" cy="29.62" r="27.85"/><path id="Path" class="cls-7" d="M7.63,47.77A28.12,28.12,0,1,0,29.12,1.5"/></g><g id="Group-37"><path class="cls-3" d="M27.18,24a4.36,4.36,0,0,0,1.58.28,4.22,4.22,0,0,0,2-.47"/><path class="cls-3" d="M31.1,24.21a21,21,0,0,0,1.7,13.21c1.92,3.63,4.61,5,7.28,3.54s2.89-4.56.81-8.32A19.71,19.71,0,0,0,31.1,24.21Z"/><path class="cls-3" d="M26.61,24.21a21.11,21.11,0,0,1-1.7,13.21c-1.93,3.63-4.62,5-7.28,3.54s-2.9-4.56-.81-8.32A19.63,19.63,0,0,1,26.61,24.21Z"/><g id="Group-2"><path id="Line-2" class="cls-8" d="M29.9,19.93l2.64-8.06"/><path id="Line-2-Copy" class="cls-8" d="M27.75,19.93l-2.63-8.06"/></g><path id="Rectangle" class="cls-3" d="M28.86,44.68a8.83,8.83,0,0,0,1.67-5.16V21.89a1.69,1.69,0,0,0-3.38,0V39.48A8.8,8.8,0,0,0,28.86,44.68Z"/></g></g><g id="Group-37-Copy-2"><circle class="cls-3" cx="28.85" cy="313.94" r="27.85"/><path class="cls-7" d="M7.36,332.08a28.13,28.13,0,1,0,21.49-46.27"/><g id="Group-34-Copy"><path id="Oval-Copy-7" class="cls-3" d="M21.63,311.61a4.57,4.57,0,0,0,6.19-1.78q1.28-2.22.76-10.26-7.21,3.58-8.5,5.79A4.56,4.56,0,0,0,21.63,311.61Z"/><path id="Oval-Copy-8" class="cls-3" d="M34.39,322.73A4.57,4.57,0,0,0,40.58,321q1.28-2.22.76-10.26-7.22,3.58-8.5,5.79A4.56,4.56,0,0,0,34.39,322.73Z"/><path id="Oval-Copy-10" class="cls-3" d="M17.7,328.1a4.54,4.54,0,0,0,6.18-1.77q1.28-2.22.76-10.26-7.22,3.57-8.5,5.79A4.54,4.54,0,0,0,17.7,328.1Z"/></g></g><g id="Group-36"><g id="Group-35"><circle class="cls-3" cx="298.94" cy="39.36" r="27.85"/><g id="Group-34"><rect class="cls-3" x="293.97" y="25.38" width="17.1" height="17.1" transform="translate(64.61 223.85) rotate(-45)"/><circle class="cls-3" cx="287.23" cy="46.76" r="2.72"/><circle class="cls-3" cx="295.35" cy="49.48" r="2"/><circle class="cls-3" cx="287.96" cy="55.31" r="1.98"/></g></g><path id="Path-Copy" class="cls-7" d="M326.81,39.51a28.12,28.12,0,0,0-28.12-28.12"/></g><g id="Group-21-Copy"><g id="Group-18"><polyline id="Path-8" class="cls-3" points="258.09 118.92 258.09 39.92 270.69 39.92"/></g></g><g id="Group-23-Copy-3"><circle class="cls-4" cx="257.66" cy="119.44" r="8.08"/><circle class="cls-5" cx="257.66" cy="119.44" r="4.2"/></g></g></g></g></g></g></svg>