<?xml version="1.0" encoding="UTF-8"?>
<svg width="463px" height="484px" viewBox="0 0 463 484" version="1.1" xmlns="http://www.w3.org/2000/svg" xmlns:xlink="http://www.w3.org/1999/xlink">
    <!-- Generator: sketchtool 55.2 (78181) - https://sketchapp.com -->
    <title>AA091D29-F99D-4C0F-9ACA-0C5B3FD4DC0C</title>
    <desc>Created with sketchtool.</desc>
    <g id="Homepage" stroke="none" stroke-width="1" fill="none" fill-rule="evenodd">
        <g id="aggrx startex llc-Homepage-1366---Animation-02" transform="translate(-209.000000, -200.000000)">
            <g id="Group-38" transform="translate(210.000000, 202.166939)">
                <g id="Group-37-Copy" transform="translate(25.000000, 0.000000)" fill-rule="nonzero">
                    <circle id="Oval" stroke="#FFFFFF" stroke-width="2" cx="35.8375234" cy="36.1887308" r="35.8375234"></circle>
                    <path d="M8.18551992,59.5349839 C14.8238142,67.389604 24.7481806,72.3774618 35.8375235,72.3774618 C55.8240077,72.3774618 72.0262544,56.1752151 72.0262544,36.1887309 C72.0262544,16.2022467 55.8240077,1.42108547e-14 35.8375235,1.42108547e-14" id="Path" stroke="#FF2961" stroke-width="2.97000003"></path>
                </g>
                <g id="Group-37-Copy-2" transform="translate(0.000000, 407.449402)" fill-rule="nonzero">
                    <circle id="Oval" stroke="#FFFFFF" stroke-width="2" cx="35.8375234" cy="36.1887308" r="35.8375234"></circle>
                    <path d="M8.18551992,59.5349839 C14.8238142,67.389604 24.7481806,72.3774618 35.8375235,72.3774618 C55.8240077,72.3774618 72.0262544,56.1752151 72.0262544,36.1887309 C72.0262544,16.2022467 55.8240077,1.42108547e-14 35.8375235,1.42108547e-14" id="Path" stroke="#FF2961" stroke-width="2.97000003"></path>
                    <g id="Group-34-Copy" transform="translate(16.337523, 14.188731)" stroke="#FFFFFF" stroke-width="2">
                        <path d="M14.6813993,20.1991613 C17.8551758,20.1991613 20.42803,17.5310162 20.42803,14.2396925 C20.42803,12.0454766 18.5124865,8.07249737 14.6813993,2.32075472 C10.8503122,8.07249737 8.93476862,12.0454766 8.93476862,14.2396925 C8.93476862,17.5310162 11.5076228,20.1991613 14.6813993,20.1991613 Z" id="Oval-Copy-7" transform="translate(14.681399, 11.259958) rotate(30.000000) translate(-14.681399, -11.259958) "></path>
                        <path d="M31.0993424,34.5098603 C34.2731189,34.5098603 36.8459731,31.8417152 36.8459731,28.5503914 C36.8459731,26.3561756 34.9304296,22.3831963 31.0993424,16.6314537 C27.2682553,22.3831963 25.3527117,26.3561756 25.3527117,28.5503914 C25.3527117,31.8417152 27.9255659,34.5098603 31.0993424,34.5098603 Z" id="Oval-Copy-8" transform="translate(31.099342, 25.570657) rotate(30.000000) translate(-31.099342, -25.570657) "></path>
                        <path d="M9.61455523,41.4289464 C12.7883317,41.4289464 15.3611859,38.7608013 15.3611859,35.4694775 C15.3611859,33.2752616 13.4456424,29.3022824 9.61455523,23.5505397 C5.7834681,29.3022824 3.86792453,33.2752616 3.86792453,35.4694775 C3.86792453,38.7608013 6.44077873,41.4289464 9.61455523,41.4289464 Z" id="Oval-Copy-10" transform="translate(9.614555, 32.489743) rotate(30.000000) translate(-9.614555, -32.489743) "></path>
                    </g>
                </g>
                <g id="Group-36" transform="translate(388.000000, 31.098195)" fill-rule="nonzero">
                    <g id="Group-35" transform="translate(0.000000, 0.188731)" stroke="#FFFFFF" stroke-width="2">
                        <circle id="Oval" cx="35.8375234" cy="35.8375234" r="35.8375234"></circle>
                        <g id="Group-34" transform="translate(17.268225, 12.845175)">
                            <rect id="Rectangle" transform="translate(23.175425, 16.000000) rotate(-315.000000) translate(-23.175425, -16.000000) " x="12.1754254" y="5" width="22" height="22"></rect>
                            <circle id="Oval" cx="3.5" cy="32.5063492" r="3.5"></circle>
                            <circle id="Oval" cx="13.95" cy="36.0063492" r="2.05"></circle>
                            <circle id="Oval" cx="4.45" cy="43.5063492" r="2.55"></circle>
                        </g>
                    </g>
                    <path d="M72.0262544,36.1887309 C72.0262544,16.2022467 55.8240077,1.0658141e-14 35.8375235,1.0658141e-14" id="Path-Copy" stroke="#FF2961" stroke-width="2.97000003"></path>
                </g>
                <g id="Group-5" transform="translate(31.500000, 74.598195)">
                    <polyline id="Path-9" stroke="#FF2961" stroke-width="2" points="180.5 4 180.5 98.7702407 120.685996 157.030635 4.16520788 198.978118"></polyline>
                    <polyline id="Path" stroke="#FF2961" stroke-width="2" points="69.5 322.234867 70.6927394 318.606127 97.8809232 268.890591 208.964074 255.684902 274.992521 330.258206"></polyline>
                    <polyline id="Path-12" stroke="#FF2961" stroke-width="2" points="306.5 51.2348666 302.95751 54.4923414 217.508932 135.280088 234.598647 212.183807 330.145693 275.105033"></polyline>
                    <path d="M180.5,4 L180.5,357.557072" id="Line-12" stroke="#FFFFFF" stroke-width="2" stroke-dasharray="9"></path>
                    <g id="Line-13" transform="translate(180.111597, 181.334792) rotate(-270.000000) translate(-180.111597, -181.334792) translate(179.111597, 3.834792)" stroke="#FFFFFF" stroke-dasharray="9" stroke-width="2">
                        <path d="M0.776805252,0 L0.776805252,353.557072" id="Line-12"></path>
                    </g>
                    <g id="Group-23" transform="translate(301.494052, 111.052517)">
                        <circle id="Oval" fill="#FFFFFF" cx="10.45576" cy="10.45576" r="10.45576"></circle>
                        <circle id="Oval" fill="#005CA1" cx="10.45576" cy="10.45576" r="5.5"></circle>
                    </g>
                    <g id="Group-23-Copy" transform="translate(98.269326, 51.773523)">
                        <circle id="Oval" fill="#FFFFFF" cx="10.45576" cy="10.45576" r="10.45576"></circle>
                        <circle id="Oval" fill="#005CA1" cx="10.45576" cy="10.45576" r="5.44150806"></circle>
                    </g>
                    <g id="Group-23-Copy-2" transform="translate(98.657728, 299.574398)">
                        <circle id="Oval" fill="#FFFFFF" cx="10.45576" cy="10.45576" r="10.45576"></circle>
                        <circle id="Oval" fill="#005CA1" cx="10.45576" cy="10.45576" r="5.44150806"></circle>
                    </g>
                    <circle id="Oval" stroke="#FFFFFF" stroke-width="6.05999994" cx="180.5" cy="180.833877" r="180"></circle>
                </g>
                <polyline id="Path-14" stroke="#FFFFFF" stroke-width="2" fill-rule="nonzero" points="343.5 190.098195 343.5 67.5981947 388.5 67.5981947"></polyline>
                <polyline id="Path-14-Copy" stroke="#FFFFFF" stroke-width="2" fill-rule="nonzero" transform="translate(119.500000, 83.098195) scale(-1, 1) translate(-119.500000, -83.098195) " points="98 130.598195 98 35.5981947 141 35.5981947"></polyline>
                <polyline id="Path-14-Copy-2" stroke="#FFFFFF" stroke-width="2" fill-rule="nonzero" transform="translate(107.000000, 418.696389) scale(-1, -1) translate(-107.000000, -418.696389) " points="73 443.696389 73 393.696389 141 393.696389"></polyline>
                <g id="Group-37" transform="translate(45.000000, 16.000000)" stroke="#FFFFFF" stroke-width="2">
                    <path d="M14.4002066,14.1374914 C14.9138522,14.3381188 15.5182559,14.4538006 16.1651179,14.4538006 C17.019485,14.4538006 17.7997844,14.2519961 18.3947293,13.9192062" id="Path"></path>
                    <path d="M18.6813188,14.2523482 C17.6714824,19.5779838 18.4296185,25.1821838 20.5603044,29.1943602 C22.7355285,33.2904039 25.8004891,34.8215357 28.8380495,33.1837449 C31.8306028,31.570221 32.1352127,27.9904977 29.786729,23.7473954 C27.5256022,19.6621244 23.3221475,16.002138 18.6813188,14.2523482 Z" id="Oval"></path>
                    <path d="M1.63321357,14.2523482 C0.623377188,19.5779838 1.38151326,25.1821838 3.51219918,29.1943602 C5.68742327,33.2904039 8.75238387,34.8215357 11.7899443,33.1837449 C14.7824976,31.570221 15.0871075,27.9904977 12.7386238,23.7473954 C10.477497,19.6621244 6.27404232,16.002138 1.63321357,14.2523482 Z" id="Oval" transform="translate(7.740067, 23.890177) scale(-1, 1) translate(-7.740067, -23.890177) "></path>
                    <g id="Group-2" transform="translate(11.733095, 0.000000)" stroke-linecap="square">
                        <path d="M5.70106118,9.62771095 L8.63983669,0.641847397" id="Line-2"></path>
                        <path d="M0.367346939,9.62771095 L3.30612245,0.641847397" id="Line-2-Copy" transform="translate(1.836735, 5.134779) scale(-1, 1) translate(-1.836735, -5.134779) "></path>
                    </g>
                    <path d="M16.2792699,37.4213842 C17.5563698,35.7118606 18.2555772,33.6271511 18.2555772,31.4734394 L18.2555772,11.814989 C18.2555772,10.7104195 17.3601467,9.81498901 16.2555772,9.81498901 C15.1510077,9.81498901 14.2555772,10.7104195 14.2555772,11.814989 L14.2555772,31.4299401 C14.2555772,33.6049603 14.972794,35.7081274 16.2792699,37.4213842 Z" id="Rectangle"></path>
                </g>
            </g>
        </g>
    </g>
</svg>