<svg xmlns="http://www.w3.org/2000/svg" viewBox="0 0 110.65 81"><defs><style>.cls-1{fill:#005ca1;}</style></defs><title>quotes</title><g id="Layer_2" data-name="Layer 2"><g id="Layer_1-2" data-name="Layer 1"><g id="Homepage"><g id="aggrx startex llc-Homepage-1366---Animation-01"><g id="Group-17-Copy"><path id="quote-marks" class="cls-1" d="M23.83,0c9.51,0,16.46,3.83,20.71,10.21,4,6,6.24,15.18,6.24,24.26,0,19.29-9.64,36.88-30.35,46.53l-2.7-5.25c10.92-4.82,20.15-15.46,22-25.67a26.17,26.17,0,0,0,.71-6.53A24.16,24.16,0,0,0,39.86,38a22.82,22.82,0,0,1-17,6.95C9.5,45,0,36.74,0,22.56,0,9.08,10.07,0,23.83,0ZM83.7,0c9.5,0,16.45,3.83,20.56,10.21,4.12,6,6.39,15.18,6.39,24.26,0,19.29-9.65,36.88-30.5,46.53L77.6,75.75c10.92-4.82,20.14-15.46,21.84-25.67a28.55,28.55,0,0,0,.85-6.67A23.45,23.45,0,0,0,99.73,38,22.86,22.86,0,0,1,82.7,45c-13.33,0-22.84-8.23-22.84-22.41C59.86,9.08,69.94,0,83.7,0Z"/></g></g></g></g></g></svg>