<?xml version="1.0" encoding="UTF-8"?>
<svg width="114px" height="112px" viewBox="0 0 114 112" version="1.1" xmlns="http://www.w3.org/2000/svg" xmlns:xlink="http://www.w3.org/1999/xlink">
    <!-- Generator: sketchtool 55.2 (78181) - https://sketchapp.com -->
    <title>39F4DA87-D245-4B0A-8B72-E53C16E1A54C</title>
    <desc>Created with sketchtool.</desc>
    <g id="Homepage" stroke="none" stroke-width="1" fill="none" fill-rule="evenodd">
        <g id="aggrx startex llc-Homepage-1366---Animation-01" transform="translate(-484.000000, -5409.000000)" stroke="#005CA1" stroke-width="2">
            <g id="simple-&amp;-scalable-" transform="translate(481.001984, 5411.000000)">
                <g id="Group-12" transform="translate(0.000000, -0.000000)">
                    <path d="M23.9915975,20.9151515 L23.9915975,49.4865801" id="Line-3"></path>
                    <path d="M23.9695516,20.9151515 C27.9809704,17.7938074 29.9866798,14.3079488 29.9866798,10.4575758 C29.9866798,6.60720268 27.9809704,3.1213441 23.9695516,4.54747351e-13 C19.9581328,3.1213441 17.9524234,6.60720268 17.9524234,10.4575758 C17.9524234,14.3079488 19.9581328,17.7938074 23.9695516,20.9151515 Z" id="Oval"></path>
                    <path d="M35.624729,34.1925567 C39.6361478,31.0712126 41.6418572,27.585354 41.6418572,23.734981 C41.6418572,19.8846079 39.6361478,16.3987493 35.624729,13.2774052 C31.6133102,16.3987493 29.6076008,19.8846079 29.6076008,23.734981 C29.6076008,27.585354 31.6133102,31.0712126 35.624729,34.1925567 Z" id="Oval-Copy-5" transform="translate(35.624729, 23.734981) rotate(45.000000) translate(-35.624729, -23.734981) "></path>
                    <path d="M12.1686434,34.1925567 C16.1800622,31.0712126 18.1857716,27.585354 18.1857716,23.734981 C18.1857716,19.8846079 16.1800622,16.3987493 12.1686434,13.2774052 C8.15722455,16.3987493 6.15151515,19.8846079 6.15151515,23.734981 C6.15151515,27.585354 8.15722455,31.0712126 12.1686434,34.1925567 Z" id="Oval-Copy-9" transform="translate(12.168643, 23.734981) scale(-1, 1) rotate(45.000000) translate(-12.168643, -23.734981) "></path>
                </g>
                <g id="Group-12-Copy-4" transform="translate(51.000000, 0.000000)">
                    <path d="M23.9915975,20.9151515 L23.9915975,49.4865801" id="Line-3"></path>
                    <path d="M23.9695516,20.9151515 C27.9809704,17.7938074 29.9866798,14.3079488 29.9866798,10.4575758 C29.9866798,6.60720268 27.9809704,3.1213441 23.9695516,4.54747351e-13 C19.9581328,3.1213441 17.9524234,6.60720268 17.9524234,10.4575758 C17.9524234,14.3079488 19.9581328,17.7938074 23.9695516,20.9151515 Z" id="Oval"></path>
                    <path d="M35.624729,34.1925567 C39.6361478,31.0712126 41.6418572,27.585354 41.6418572,23.734981 C41.6418572,19.8846079 39.6361478,16.3987493 35.624729,13.2774052 C31.6133102,16.3987493 29.6076008,19.8846079 29.6076008,23.734981 C29.6076008,27.585354 31.6133102,31.0712126 35.624729,34.1925567 Z" id="Oval-Copy-5" transform="translate(35.624729, 23.734981) rotate(45.000000) translate(-35.624729, -23.734981) "></path>
                    <path d="M12.1686434,34.1925567 C16.1800622,31.0712126 18.1857716,27.585354 18.1857716,23.734981 C18.1857716,19.8846079 16.1800622,16.3987493 12.1686434,13.2774052 C8.15722455,16.3987493 6.15151515,19.8846079 6.15151515,23.734981 C6.15151515,27.585354 8.15722455,31.0712126 12.1686434,34.1925567 Z" id="Oval-Copy-9" transform="translate(12.168643, 23.734981) scale(-1, 1) rotate(45.000000) translate(-12.168643, -23.734981) "></path>
                </g>
                <g id="Group-12-Copy-3" transform="translate(0.000000, 60.001674)">
                    <path d="M23.9915975,20.9151515 L23.9915975,49.4865801" id="Line-3"></path>
                    <path d="M23.9695516,20.9151515 C27.9809704,17.7938074 29.9866798,14.3079488 29.9866798,10.4575758 C29.9866798,6.60720268 27.9809704,3.1213441 23.9695516,4.54747351e-13 C19.9581328,3.1213441 17.9524234,6.60720268 17.9524234,10.4575758 C17.9524234,14.3079488 19.9581328,17.7938074 23.9695516,20.9151515 Z" id="Oval"></path>
                    <path d="M35.624729,34.1925567 C39.6361478,31.0712126 41.6418572,27.585354 41.6418572,23.734981 C41.6418572,19.8846079 39.6361478,16.3987493 35.624729,13.2774052 C31.6133102,16.3987493 29.6076008,19.8846079 29.6076008,23.734981 C29.6076008,27.585354 31.6133102,31.0712126 35.624729,34.1925567 Z" id="Oval-Copy-5" transform="translate(35.624729, 23.734981) rotate(45.000000) translate(-35.624729, -23.734981) "></path>
                    <path d="M12.1686434,34.1925567 C16.1800622,31.0712126 18.1857716,27.585354 18.1857716,23.734981 C18.1857716,19.8846079 16.1800622,16.3987493 12.1686434,13.2774052 C8.15722455,16.3987493 6.15151515,19.8846079 6.15151515,23.734981 C6.15151515,27.585354 8.15722455,31.0712126 12.1686434,34.1925567 Z" id="Oval-Copy-9" transform="translate(12.168643, 23.734981) scale(-1, 1) rotate(45.000000) translate(-12.168643, -23.734981) "></path>
                </g>
                <path d="M116.000207,63.1359333 C112.652869,60.1238766 107.497749,60.39347 104.484324,63.7394395 L102.870869,65.5321675 C101.944398,66.7309688 101.418896,65.649858 101.372367,64.1718838 L101.372367,32.3078542 C101.372367,29.4860182 99.0856127,27.1978952 96.2637767,27.1978952 C93.4405723,27.1978952 91.1538177,29.4860182 91.1538177,32.3078542 L91.1538177,55.1493985 C86.3504014,54.5103115 81.1213834,54.5390499 75.4325511,55.2848795 C75.1328508,55.3231973 74.8331504,55.3765686 74.5389241,55.4436249 C69.5658145,56.5657905 66.4867015,61.5950084 67.270849,66.6324372 L70.8973598,89.9077943 C71.4173878,93.2400788 75.4010757,95.6978952 77.6590919,95.6978952 L94.5860023,95.6978952 C97.0410817,95.6978952 102.307049,87.2255448 102.308418,87.1790159 L116.383385,66.2328367 C117.043,65.2488891 116.880149,63.9296602 116.000207,63.1359333" id="Fill-1" fill="#F8F8F8" transform="translate(91.968273, 61.447895) rotate(-36.000000) translate(-91.968273, -61.447895) "></path>
            </g>
        </g>
    </g>
</svg>